<svg width="1440" height="1128" viewBox="0 0 1440 1128" fill="none" xmlns="http://www.w3.org/2000/svg">
    <g clip-path="url(#clip0_1_2)">
        <rect width="1440" height="1128" fill="white"/>
        <g opacity="0.5">
            <path opacity="0.05" d="M723.346 159.44C718.945 143.152 704.065 131.154 686.381 131.154C665.233 131.154 648.085 148.302 648.085 169.449C648.085 169.606 648.097 169.751 648.097 169.907C630.312 172.03 616.918 181.257 616.918 192.328C616.918 198.83 621.542 204.695 628.96 208.85C628.502 210.403 628.245 212.023 628.245 213.676C628.245 225.473 640.511 235.036 655.637 235.036C665.3 235.036 673.779 231.137 678.661 225.239C686.805 231.327 697.53 235.036 709.282 235.036C734.73 235.036 755.363 217.698 755.363 196.316C755.375 179.057 741.924 164.433 723.346 159.44Z" fill="#C6C6C6"/>
            <path opacity="0.05" d="M119.806 236.075C111.997 207.163 85.5997 185.893 54.2306 185.893C16.7062 185.893 -13.702 216.313 -13.702 253.826C-13.702 254.105 -13.6797 254.373 -13.6797 254.641C-45.2386 258.417 -69 274.783 -69 294.423C-69 305.951 -60.7891 316.352 -47.6293 323.747C-48.4448 326.506 -48.8917 329.366 -48.8917 332.316C-48.8917 353.239 -27.1411 370.209 -0.296486 370.209C16.8403 370.209 31.8992 363.282 40.5458 352.837C54.9903 363.64 74.015 370.209 94.8718 370.209C140.026 370.209 176.635 339.454 176.635 301.505C176.623 270.873 152.762 244.934 119.806 236.075Z" fill="#C6C6C6"/>
            <path opacity="0.1" d="M825.236 291.281C819.767 270.954 801.279 256 779.309 256C753.027 256 731.73 277.387 731.73 303.762C731.73 303.958 731.745 304.146 731.745 304.335C709.642 306.99 693 318.496 693 332.304C693 340.41 698.751 347.722 707.968 352.921C707.396 354.861 707.084 356.872 707.084 358.946C707.084 373.657 722.317 385.587 741.119 385.587C753.121 385.587 763.668 380.717 769.724 373.374C779.841 380.969 793.165 385.587 807.773 385.587C839.398 385.587 865.038 363.964 865.038 337.284C865.03 315.747 848.318 297.51 825.236 291.281Z" fill="#C6C6C6"/>
            <path opacity="0.15" d="M76.3009 444.71C69.3403 418.951 45.8094 400 17.8472 400C-15.6019 400 -42.7077 427.103 -42.7077 460.526C-42.7077 460.774 -42.6877 461.013 -42.6877 461.252C-70.8192 464.616 -92 479.198 -92 496.696C-92 506.967 -84.6808 516.234 -72.9503 522.823C-73.6772 525.281 -74.0755 527.829 -74.0755 530.457C-74.0755 549.099 -54.6872 564.218 -30.758 564.218C-15.4824 564.218 -2.05892 558.047 5.64861 548.741C18.5244 558.366 35.4829 564.218 54.0746 564.218C94.325 564.218 126.958 536.817 126.958 503.006C126.958 475.714 105.687 452.603 76.3009 444.71Z" fill="#C6C6C6"/>
            <path opacity="0.15" d="M511.301 670.71C504.34 644.951 480.809 626 452.847 626C419.398 626 392.292 653.103 392.292 686.526C392.292 686.774 392.312 687.013 392.312 687.252C364.181 690.616 343 705.198 343 722.696C343 732.967 350.319 742.234 362.05 748.823C361.323 751.281 360.924 753.829 360.924 756.457C360.924 775.099 380.313 790.218 404.242 790.218C419.518 790.218 432.941 784.047 440.649 774.741C453.524 784.366 470.483 790.218 489.075 790.218C529.325 790.218 561.958 762.817 561.958 729.006C561.958 701.714 540.687 678.603 511.301 670.71Z" fill="#C6C6C6"/>
            <path opacity="0.15" d="M943.301 145.71C936.34 119.951 912.809 101 884.847 101C851.398 101 824.292 128.103 824.292 161.526C824.292 161.774 824.312 162.013 824.312 162.252C796.181 165.616 775 180.198 775 197.696C775 207.967 782.319 217.234 794.05 223.823C793.323 226.281 792.924 228.829 792.924 231.457C792.924 250.099 812.313 265.218 836.242 265.218C851.518 265.218 864.941 259.047 872.649 249.741C885.524 259.366 902.483 265.218 921.075 265.218C961.325 265.218 993.958 237.817 993.958 204.006C993.958 176.714 972.687 153.603 943.301 145.71Z" fill="#C6C6C6"/>
            <path opacity="0.05" d="M362.539 820.005C353.376 786.01 322.402 761 285.595 761C241.565 761 205.885 796.768 205.885 840.877C205.885 841.206 205.911 841.521 205.911 841.836C168.881 846.276 141 865.519 141 888.612C141 902.168 150.634 914.397 166.076 923.093C165.119 926.337 164.594 929.7 164.594 933.167C164.594 957.77 190.116 977.723 221.614 977.723C241.722 977.723 259.392 969.579 269.537 957.298C286.486 970 308.809 977.723 333.282 977.723C386.265 977.723 429.22 941.561 429.22 896.94C429.22 860.922 401.221 830.421 362.539 820.005Z" fill="#C6C6C6"/>
            <path opacity="0.1" d="M202.324 716.069C198.133 700.474 183.967 689 167.132 689C146.995 689 130.676 705.409 130.676 725.645C130.676 725.795 130.688 725.94 130.688 726.085C113.752 728.121 101 736.95 101 747.544C101 753.762 105.406 759.373 112.469 763.362C112.031 764.851 111.791 766.393 111.791 767.984C111.791 779.271 123.464 788.425 137.87 788.425C147.067 788.425 155.148 784.688 159.788 779.054C167.54 784.881 177.75 788.425 188.943 788.425C213.175 788.425 232.821 771.835 232.821 751.364C232.821 734.841 220.016 720.848 202.324 716.069Z" fill="#C6C6C6"/>
            <path opacity="0.09" d="M861.519 780.977C856.121 760.826 837.873 746 816.188 746C790.248 746 769.227 767.203 769.227 793.35C769.227 793.545 769.242 793.731 769.242 793.918C747.426 796.55 731 807.957 731 821.646C731 829.682 736.676 836.931 745.773 842.086C745.21 844.009 744.901 846.002 744.901 848.058C744.901 862.642 759.936 874.47 778.494 874.47C790.34 874.47 800.75 869.642 806.727 862.362C816.713 869.892 829.864 874.47 844.282 874.47C875.497 874.47 900.804 853.034 900.804 826.583C900.804 805.232 884.308 787.152 861.519 780.977Z" fill="#C6C6C6"/>
            <path opacity="0.1" d="M1328.71 527.885C1322.11 503.177 1299.78 485 1273.24 485C1241.5 485 1215.78 510.996 1215.78 543.055C1215.78 543.294 1215.8 543.523 1215.8 543.752C1189.1 546.979 1169 560.965 1169 577.749C1169 587.601 1175.95 596.489 1187.08 602.81C1186.39 605.168 1186.01 607.612 1186.01 610.132C1186.01 628.014 1204.41 642.515 1227.12 642.515C1241.61 642.515 1254.35 636.596 1261.67 627.67C1273.89 636.902 1289.98 642.515 1307.62 642.515C1345.82 642.515 1376.79 616.233 1376.79 583.802C1376.79 557.624 1356.6 535.456 1328.71 527.885Z" fill="#C6C6C6"/>
        </g>
        <circle opacity="0.1" cx="757.5" cy="64.5" r="43.5" fill="#FAD34F"/>
    </g>
    <defs>
        <clipPath id="clip0_1_2">
            <rect width="1440" height="1128" fill="white"/>
        </clipPath>
    </defs>
</svg>
